<svg xmlns="http://www.w3.org/2000/svg" version="1.1" xmlns:xlink="http://www.w3.org/1999/xlink" xmlns:svgjs="http://svgjs.dev/svgjs" width="1500" height="431" viewBox="0 0 1500 431"><g transform="matrix(1,0,0,1,-0.9090909090909918,0.6061675158566118)"><svg viewBox="0 0 396 114" data-background-color="#000000" preserveAspectRatio="xMidYMid meet" height="431" width="1500" xmlns="http://www.w3.org/2000/svg" xmlns:xlink="http://www.w3.org/1999/xlink"><g id="tight-bounds" transform="matrix(1,0,0,1,0.2400000000000091,-0.1603320111546509)"><svg viewBox="0 0 395.52 114.3206640223093" height="114.3206640223093" width="395.52"><g><svg viewBox="0 0 662.8224453206292 191.5814676323451" height="114.3206640223093" width="395.52"><g transform="matrix(1,0,0,1,267.3024453206292,47.35064392853211)"><svg viewBox="0 0 395.52 96.88017977528088" height="96.88017977528088" width="395.52"><g id="textblocktransform"><svg viewBox="0 0 395.52 96.88017977528088" height="96.88017977528088" width="395.52" id="textblock"><g><svg viewBox="0 0 395.52 96.88017977528088" height="96.88017977528088" width="395.52"><g transform="matrix(1,0,0,1,0,0)"><svg width="395.52" viewBox="-0.15 -36.65 155.74 38.15" height="96.88017977528088" data-palette-color="url(#cca1ded1-1715-48e3-abc3-7f700a6c0952)"></svg></g></svg></g></svg></g></svg></g><g><svg viewBox="0 0 244.43135999999998 191.5814676323451" height="191.5814676323451" width="244.43135999999998"><g><svg xmlns="http://www.w3.org/2000/svg" xmlns:xlink="http://www.w3.org/1999/xlink" version="1.1" x="0" y="0" viewBox="0 0 99.63200062247249 78.09" enable-background="new 0 0 99.633 78.09" xml:space="preserve" width="244.43135999999998" height="191.5814676323451" class="icon-icon-0" data-fill-palette-color="accent" id="icon-0"></svg></g></svg></g></svg></g><defs></defs><mask id="6f01517c-101c-451d-a98e-f3ea89a8a862"><g id="SvgjsG1595"><svg viewBox="0 0 395.52 114.3206640223093" height="114.3206640223093" width="395.52"><g><svg viewBox="0 0 662.8224453206292 191.5814676323451" height="114.3206640223093" width="395.52"><g transform="matrix(1,0,0,1,267.3024453206292,47.35064392853211)"><svg viewBox="0 0 395.52 96.88017977528088" height="96.88017977528088" width="395.52"><g id="SvgjsG1594"><svg viewBox="0 0 395.52 96.88017977528088" height="96.88017977528088" width="395.52" id="SvgjsSvg1593"><g><svg viewBox="0 0 395.52 96.88017977528088" height="96.88017977528088" width="395.52"><g transform="matrix(1,0,0,1,0,0)"><svg width="395.52" viewBox="-0.15 -36.65 155.74 38.15" height="96.88017977528088" data-palette-color="url(#cca1ded1-1715-48e3-abc3-7f700a6c0952)"><path d="M13.55 0.65L7.25 0.1Q6.75-8.75 6.75-15.33 6.75-21.9 7.05-29.05L7.05-29.05 0.95-28.2-0.15-34Q4.75-34.85 9.55-35.25L9.55-35.25 18.9-35.75 19.85-30.2Q17.1-30.05 13.65-29.75L13.65-29.75Q13.35-22.55 13.35-16.55 13.35-10.55 13.55 0.65L13.55 0.65ZM32.9 0.65L26.6 0.1Q26.1-8.75 26.1-15.33 26.1-21.9 26.4-29.05L26.4-29.05 20.3-28.2 19.2-34Q24.1-34.85 28.9-35.25L28.9-35.25 38.25-35.75 39.2-30.2Q36.45-30.05 33-29.75L33-29.75Q32.7-22.55 32.7-16.55 32.7-10.55 32.9 0.65L32.9 0.65ZM57.45-35.75L63.7-35.2 63.75-11.95Q63.75-6.2 63.35 0.4L63.35 0.4 57.75-0.15Q51.3-14.8 47.2-22.1L47.2-22.1Q47.25-14.7 47.25 1.5L47.25 1.5 41.4 0.85Q41.25-2.25 41.25-5.15L41.25-5.15Q41.25-17.25 42.6-33.35L42.6-33.35 49.25-32.7Q54.2-19.05 58.15-11.95L58.15-11.95Q57.85-27.05 57.45-35.75L57.45-35.75ZM87.39 0.9L80.79 0.3Q80.39-12.7 80.39-19.3 80.39-25.9 81.24-33.4L81.24-33.4 90.64-32.65Q92.39-26.35 94.34-15L94.34-15Q97.14-24.15 99.29-34.8L99.29-34.8 108.74-33.95Q109.14-18.5 109.14-11.38 109.14-4.25 108.69 1.3L108.69 1.3 101.84 0.65Q102.49-5.65 102.94-26.05L102.94-26.05 102.54-26.1Q102.04-24.15 100.94-19.4L100.94-19.4Q98.64-9.55 96.49-2.6L96.49-2.6 91.94-3Q90.74-7.8 89.17-15.43 87.59-23.05 86.74-26.65L86.74-26.65 86.34-26.7Q86.79-10 87.39 0.9L87.39 0.9ZM122.39-35.05L122.39-35.05Q128.24-35.05 131.41-30.45 134.59-25.85 134.59-19.3L134.59-19.3Q134.59-14.25 132.99-9.78 131.39-5.3 127.99-2.27 124.59 0.75 120.04 0.75L120.04 0.75Q119.14 0.75 113.24 0.05L113.24 0.05Q113.94-10.7 113.94-17.75 113.94-24.8 113.49-33.35L113.49-33.35Q118.34-35.05 122.39-35.05ZM121.29-5.35Q123.59-5.35 125.86-9.43 128.14-13.5 128.14-18.23 128.14-22.95 126.51-26 124.89-29.05 122.64-29.05L122.64-29.05Q121.44-29.05 120.39-28.65L120.39-28.65Q120.59-21.25 120.59-16.23 120.59-11.2 120.29-5.75L120.29-5.75Q120.64-5.35 121.29-5.35L121.29-5.35ZM150.84-23.55L150.84-23.55Q153.24-23.55 154.41-20.9 155.59-18.25 155.59-14.63 155.59-11 154.81-7.45 154.03-3.9 152.36-1.43 150.69 1.05 148.53 1.05L148.53 1.05Q145.39 1.05 143.34-1.75L143.34-1.75Q143.34-1.05 143.44 0.25L143.44 0.25 139.03-0.2Q138.74-6.2 138.74-16.32 138.74-26.45 139.28-36.65L139.28-36.65 144.99-36.15Q144.39-26.3 144.39-18.25L144.39-18.25Q147.74-23.55 150.84-23.55ZM144.39-9.7L144.39-9.7 144.44-5.8Q145.03-4.95 145.49-4.63 145.94-4.3 146.84-4.3L146.84-4.3Q148.09-4.3 149.03-7.08 149.99-9.85 149.99-12.35 149.99-14.85 149.71-15.95 149.44-17.05 148.53-17.05L148.53-17.05Q146.64-17.05 144.39-9.7Z" opacity="1" transform="matrix(1,0,0,1,0,0)" fill="white" class="wordmark-text-0" id="SvgjsPath1592"></path></svg></g></svg></g></svg></g></svg></g><g><svg viewBox="0 0 244.43135999999998 191.5814676323451" height="191.5814676323451" width="244.43135999999998"><g><svg xmlns="http://www.w3.org/2000/svg" xmlns:xlink="http://www.w3.org/1999/xlink" version="1.1" x="0" y="0" viewBox="0 0 99.63200062247249 78.09" enable-background="new 0 0 99.633 78.09" xml:space="preserve" width="244.43135999999998" height="191.5814676323451" class="icon-icon-0" data-fill-palette-color="accent" id="SvgjsSvg1591"><g fill="black"><path d="M96.941 0H2.693C1.205 0 0 1.206 0 2.693v56.548c0 1.489 1.205 2.694 2.693 2.694h43.085v10.771h-8.079c-1.488 0-2.693 1.204-2.693 2.692 0 1.485 1.205 2.692 2.693 2.692h21.542c1.488 0 2.692-1.207 2.692-2.692 0-1.488-1.204-2.692-2.692-2.692h-8.078V61.935h45.777c1.488 0 2.692-1.205 2.692-2.694V2.693C99.633 1.206 98.429 0 96.941 0zM94.248 56.548H5.386V5.385h88.861V56.548z" fill="black"></path><path d="M43.264 41.276c0.063 0.177 0.155 0.33 0.25 0.488 0.063 0.101 0.084 0.217 0.16 0.311 0.029 0.037 0.074 0.048 0.105 0.082 0.19 0.212 0.413 0.376 0.66 0.521 0.084 0.05 0.153 0.123 0.24 0.163 0.336 0.15 0.705 0.244 1.099 0.244l0 0c0.002 0 0.002 0 0.002 0 0.327 0 0.65-0.073 0.963-0.194 0.116-0.045 0.213-0.116 0.321-0.176 0.131-0.074 0.273-0.121 0.396-0.219l10.771-8.619c0.092-0.074 0.14-0.177 0.219-0.26 0.06-0.064 0.145-0.09 0.202-0.161 0.052-0.066 0.065-0.146 0.11-0.214 0.103-0.154 0.179-0.311 0.247-0.48 0.063-0.159 0.118-0.314 0.149-0.48 0.032-0.17 0.04-0.333 0.043-0.507-0.003-0.173-0.011-0.336-0.043-0.507-0.031-0.166-0.086-0.321-0.149-0.48-0.068-0.169-0.145-0.326-0.247-0.479-0.045-0.069-0.059-0.149-0.11-0.215-0.066-0.08-0.158-0.119-0.229-0.19-0.07-0.072-0.109-0.166-0.191-0.23L47.46 21.054c-0.095-0.074-0.208-0.097-0.308-0.157-0.161-0.099-0.313-0.192-0.494-0.256-0.177-0.062-0.353-0.083-0.537-0.107-0.118-0.016-0.221-0.07-0.344-0.07-0.053 0-0.095 0.026-0.147 0.031-0.182 0.009-0.352 0.059-0.529 0.106-0.168 0.044-0.333 0.078-0.486 0.153-0.143 0.066-0.261 0.168-0.39 0.26-0.158 0.114-0.311 0.222-0.439 0.368-0.034 0.037-0.082 0.054-0.113 0.093-0.076 0.095-0.097 0.209-0.16 0.311-0.095 0.158-0.187 0.31-0.25 0.487-0.063 0.181-0.086 0.361-0.11 0.548-0.016 0.114-0.068 0.217-0.068 0.336v17.235c0 0.119 0.053 0.223 0.068 0.337C43.177 40.915 43.201 41.095 43.264 41.276zM48.47 28.761l3.769 3.014-3.769 3.014V28.761z" fill="black"></path></g></svg></g></svg></g></svg></g><defs><mask></mask></defs></svg><rect width="395.52" height="114.3206640223093" fill="black" stroke="none" visibility="hidden"></rect></g></mask><linearGradient x1="0" x2="1" y1="0.5" y2="0.5" id="cca1ded1-1715-48e3-abc3-7f700a6c0952"><stop stop-color="#f00b51" offset="0"></stop><stop stop-color="#730062" offset="1"></stop></linearGradient><rect width="395.52" height="114.3206640223093" fill="url(#cca1ded1-1715-48e3-abc3-7f700a6c0952)" mask="url(#6f01517c-101c-451d-a98e-f3ea89a8a862)" data-fill-palette-color="primary"></rect><mask id="3c6c5563-4c58-4930-bd93-05b9d9e0d16b"><g id="SvgjsG1614"><svg viewBox="0 0 395.52 114.3206640223093" height="114.3206640223093" width="395.52"><g><svg viewBox="0 0 662.8224453206292 191.5814676323451" height="114.3206640223093" width="395.52"><g transform="matrix(1,0,0,1,267.3024453206292,47.35064392853211)"><svg viewBox="0 0 395.52 96.88017977528088" height="96.88017977528088" width="395.52"><g id="SvgjsG1613"><svg viewBox="0 0 395.52 96.88017977528088" height="96.88017977528088" width="395.52" id="SvgjsSvg1612"><g><svg viewBox="0 0 395.52 96.88017977528088" height="96.88017977528088" width="395.52"><g transform="matrix(1,0,0,1,0,0)"><svg width="395.52" viewBox="-0.15 -36.65 155.74 38.15" height="96.88017977528088" data-palette-color="url(#cca1ded1-1715-48e3-abc3-7f700a6c0952)"></svg></g></svg></g></svg></g></svg></g><g><svg viewBox="0 0 244.43135999999998 191.5814676323451" height="191.5814676323451" width="244.43135999999998"><g><svg xmlns="http://www.w3.org/2000/svg" xmlns:xlink="http://www.w3.org/1999/xlink" version="1.1" x="0" y="0" viewBox="0 0 99.63200062247249 78.09" enable-background="new 0 0 99.633 78.09" xml:space="preserve" width="244.43135999999998" height="191.5814676323451" class="icon-icon-0" data-fill-palette-color="accent" id="SvgjsSvg1611"><g fill="white"><path d="M96.941 0H2.693C1.205 0 0 1.206 0 2.693v56.548c0 1.489 1.205 2.694 2.693 2.694h43.085v10.771h-8.079c-1.488 0-2.693 1.204-2.693 2.692 0 1.485 1.205 2.692 2.693 2.692h21.542c1.488 0 2.692-1.207 2.692-2.692 0-1.488-1.204-2.692-2.692-2.692h-8.078V61.935h45.777c1.488 0 2.692-1.205 2.692-2.694V2.693C99.633 1.206 98.429 0 96.941 0zM94.248 56.548H5.386V5.385h88.861V56.548z" fill="white"></path><path d="M43.264 41.276c0.063 0.177 0.155 0.33 0.25 0.488 0.063 0.101 0.084 0.217 0.16 0.311 0.029 0.037 0.074 0.048 0.105 0.082 0.19 0.212 0.413 0.376 0.66 0.521 0.084 0.05 0.153 0.123 0.24 0.163 0.336 0.15 0.705 0.244 1.099 0.244l0 0c0.002 0 0.002 0 0.002 0 0.327 0 0.65-0.073 0.963-0.194 0.116-0.045 0.213-0.116 0.321-0.176 0.131-0.074 0.273-0.121 0.396-0.219l10.771-8.619c0.092-0.074 0.14-0.177 0.219-0.26 0.06-0.064 0.145-0.09 0.202-0.161 0.052-0.066 0.065-0.146 0.11-0.214 0.103-0.154 0.179-0.311 0.247-0.48 0.063-0.159 0.118-0.314 0.149-0.48 0.032-0.17 0.04-0.333 0.043-0.507-0.003-0.173-0.011-0.336-0.043-0.507-0.031-0.166-0.086-0.321-0.149-0.48-0.068-0.169-0.145-0.326-0.247-0.479-0.045-0.069-0.059-0.149-0.11-0.215-0.066-0.08-0.158-0.119-0.229-0.19-0.07-0.072-0.109-0.166-0.191-0.23L47.46 21.054c-0.095-0.074-0.208-0.097-0.308-0.157-0.161-0.099-0.313-0.192-0.494-0.256-0.177-0.062-0.353-0.083-0.537-0.107-0.118-0.016-0.221-0.07-0.344-0.07-0.053 0-0.095 0.026-0.147 0.031-0.182 0.009-0.352 0.059-0.529 0.106-0.168 0.044-0.333 0.078-0.486 0.153-0.143 0.066-0.261 0.168-0.39 0.26-0.158 0.114-0.311 0.222-0.439 0.368-0.034 0.037-0.082 0.054-0.113 0.093-0.076 0.095-0.097 0.209-0.16 0.311-0.095 0.158-0.187 0.31-0.25 0.487-0.063 0.181-0.086 0.361-0.11 0.548-0.016 0.114-0.068 0.217-0.068 0.336v17.235c0 0.119 0.053 0.223 0.068 0.337C43.177 40.915 43.201 41.095 43.264 41.276zM48.47 28.761l3.769 3.014-3.769 3.014V28.761z" fill="white"></path></g></svg></g></svg></g></svg></g><defs><mask></mask></defs><mask><g id="SvgjsG1610"><svg viewBox="0 0 395.52 114.3206640223093" height="114.3206640223093" width="395.52"><g><svg viewBox="0 0 662.8224453206292 191.5814676323451" height="114.3206640223093" width="395.52"><g transform="matrix(1,0,0,1,267.3024453206292,47.35064392853211)"><svg viewBox="0 0 395.52 96.88017977528088" height="96.88017977528088" width="395.52"><g id="SvgjsG1609"><svg viewBox="0 0 395.52 96.88017977528088" height="96.88017977528088" width="395.52" id="SvgjsSvg1608"><g><svg viewBox="0 0 395.52 96.88017977528088" height="96.88017977528088" width="395.52"><g transform="matrix(1,0,0,1,0,0)"><svg width="395.52" viewBox="-0.15 -36.65 155.74 38.15" height="96.88017977528088" data-palette-color="url(#cca1ded1-1715-48e3-abc3-7f700a6c0952)"><path d="M13.55 0.65L7.25 0.1Q6.75-8.75 6.75-15.33 6.75-21.9 7.05-29.05L7.05-29.05 0.95-28.2-0.15-34Q4.75-34.85 9.55-35.25L9.55-35.25 18.9-35.75 19.85-30.2Q17.1-30.05 13.65-29.75L13.65-29.75Q13.35-22.55 13.35-16.55 13.35-10.55 13.55 0.65L13.55 0.65ZM32.9 0.65L26.6 0.1Q26.1-8.75 26.1-15.33 26.1-21.9 26.4-29.05L26.4-29.05 20.3-28.2 19.2-34Q24.1-34.85 28.9-35.25L28.9-35.25 38.25-35.75 39.2-30.2Q36.45-30.05 33-29.75L33-29.75Q32.7-22.55 32.7-16.55 32.7-10.55 32.9 0.65L32.9 0.65ZM57.45-35.75L63.7-35.2 63.75-11.95Q63.75-6.2 63.35 0.4L63.35 0.4 57.75-0.15Q51.3-14.8 47.2-22.1L47.2-22.1Q47.25-14.7 47.25 1.5L47.25 1.5 41.4 0.85Q41.25-2.25 41.25-5.15L41.25-5.15Q41.25-17.25 42.6-33.35L42.6-33.35 49.25-32.7Q54.2-19.05 58.15-11.95L58.15-11.95Q57.85-27.05 57.45-35.75L57.45-35.75ZM87.39 0.9L80.79 0.3Q80.39-12.7 80.39-19.3 80.39-25.9 81.24-33.4L81.24-33.4 90.64-32.65Q92.39-26.35 94.34-15L94.34-15Q97.14-24.15 99.29-34.8L99.29-34.8 108.74-33.95Q109.14-18.5 109.14-11.38 109.14-4.25 108.69 1.3L108.69 1.3 101.84 0.65Q102.49-5.65 102.94-26.05L102.94-26.05 102.54-26.1Q102.04-24.15 100.94-19.4L100.94-19.4Q98.64-9.55 96.49-2.6L96.49-2.6 91.94-3Q90.74-7.8 89.17-15.43 87.59-23.05 86.74-26.65L86.74-26.65 86.34-26.7Q86.79-10 87.39 0.9L87.39 0.9ZM122.39-35.05L122.39-35.05Q128.24-35.05 131.41-30.45 134.59-25.85 134.59-19.3L134.59-19.3Q134.59-14.25 132.99-9.78 131.39-5.3 127.99-2.27 124.59 0.75 120.04 0.75L120.04 0.75Q119.14 0.75 113.24 0.05L113.24 0.05Q113.94-10.7 113.94-17.75 113.94-24.8 113.49-33.35L113.49-33.35Q118.34-35.05 122.39-35.05ZM121.29-5.35Q123.59-5.35 125.86-9.43 128.14-13.5 128.14-18.23 128.14-22.95 126.51-26 124.89-29.05 122.64-29.05L122.64-29.05Q121.44-29.05 120.39-28.65L120.39-28.65Q120.59-21.25 120.59-16.23 120.59-11.2 120.29-5.75L120.29-5.75Q120.64-5.35 121.29-5.35L121.29-5.35ZM150.84-23.55L150.84-23.55Q153.24-23.55 154.41-20.9 155.59-18.25 155.59-14.63 155.59-11 154.81-7.45 154.03-3.9 152.36-1.43 150.69 1.05 148.53 1.05L148.53 1.05Q145.39 1.05 143.34-1.75L143.34-1.75Q143.34-1.05 143.44 0.25L143.44 0.25 139.03-0.2Q138.74-6.2 138.74-16.32 138.74-26.45 139.28-36.65L139.28-36.65 144.99-36.15Q144.39-26.3 144.39-18.25L144.39-18.25Q147.74-23.55 150.84-23.55ZM144.39-9.7L144.39-9.7 144.44-5.8Q145.03-4.95 145.49-4.63 145.94-4.3 146.84-4.3L146.84-4.3Q148.09-4.3 149.03-7.08 149.99-9.85 149.99-12.35 149.99-14.85 149.71-15.95 149.44-17.05 148.53-17.05L148.53-17.05Q146.64-17.05 144.39-9.7Z" opacity="1" transform="matrix(1,0,0,1,0,0)" fill="black" class="wordmark-text-0" id="SvgjsPath1607"></path></svg></g></svg></g></svg></g></svg></g><g><svg viewBox="0 0 244.43135999999998 191.5814676323451" height="191.5814676323451" width="244.43135999999998"><g><svg xmlns="http://www.w3.org/2000/svg" xmlns:xlink="http://www.w3.org/1999/xlink" version="1.1" x="0" y="0" viewBox="0 0 99.63200062247249 78.09" enable-background="new 0 0 99.633 78.09" xml:space="preserve" width="244.43135999999998" height="191.5814676323451" class="icon-icon-0" data-fill-palette-color="accent" id="SvgjsSvg1606"><g fill="black"><path d="M96.941 0H2.693C1.205 0 0 1.206 0 2.693v56.548c0 1.489 1.205 2.694 2.693 2.694h43.085v10.771h-8.079c-1.488 0-2.693 1.204-2.693 2.692 0 1.485 1.205 2.692 2.693 2.692h21.542c1.488 0 2.692-1.207 2.692-2.692 0-1.488-1.204-2.692-2.692-2.692h-8.078V61.935h45.777c1.488 0 2.692-1.205 2.692-2.694V2.693C99.633 1.206 98.429 0 96.941 0zM94.248 56.548H5.386V5.385h88.861V56.548z" fill="black"></path><path d="M43.264 41.276c0.063 0.177 0.155 0.33 0.25 0.488 0.063 0.101 0.084 0.217 0.16 0.311 0.029 0.037 0.074 0.048 0.105 0.082 0.19 0.212 0.413 0.376 0.66 0.521 0.084 0.05 0.153 0.123 0.24 0.163 0.336 0.15 0.705 0.244 1.099 0.244l0 0c0.002 0 0.002 0 0.002 0 0.327 0 0.65-0.073 0.963-0.194 0.116-0.045 0.213-0.116 0.321-0.176 0.131-0.074 0.273-0.121 0.396-0.219l10.771-8.619c0.092-0.074 0.14-0.177 0.219-0.26 0.06-0.064 0.145-0.09 0.202-0.161 0.052-0.066 0.065-0.146 0.11-0.214 0.103-0.154 0.179-0.311 0.247-0.48 0.063-0.159 0.118-0.314 0.149-0.48 0.032-0.17 0.04-0.333 0.043-0.507-0.003-0.173-0.011-0.336-0.043-0.507-0.031-0.166-0.086-0.321-0.149-0.48-0.068-0.169-0.145-0.326-0.247-0.479-0.045-0.069-0.059-0.149-0.11-0.215-0.066-0.08-0.158-0.119-0.229-0.19-0.07-0.072-0.109-0.166-0.191-0.23L47.46 21.054c-0.095-0.074-0.208-0.097-0.308-0.157-0.161-0.099-0.313-0.192-0.494-0.256-0.177-0.062-0.353-0.083-0.537-0.107-0.118-0.016-0.221-0.07-0.344-0.07-0.053 0-0.095 0.026-0.147 0.031-0.182 0.009-0.352 0.059-0.529 0.106-0.168 0.044-0.333 0.078-0.486 0.153-0.143 0.066-0.261 0.168-0.39 0.26-0.158 0.114-0.311 0.222-0.439 0.368-0.034 0.037-0.082 0.054-0.113 0.093-0.076 0.095-0.097 0.209-0.16 0.311-0.095 0.158-0.187 0.31-0.25 0.487-0.063 0.181-0.086 0.361-0.11 0.548-0.016 0.114-0.068 0.217-0.068 0.336v17.235c0 0.119 0.053 0.223 0.068 0.337C43.177 40.915 43.201 41.095 43.264 41.276zM48.47 28.761l3.769 3.014-3.769 3.014V28.761z" fill="black"></path></g></svg></g></svg></g></svg></g><defs><mask></mask></defs></svg><rect width="395.52" height="114.3206640223093" fill="black" stroke="none" visibility="hidden"></rect></g></mask></svg><rect width="395.52" height="114.3206640223093" fill="black" stroke="none" visibility="hidden"></rect></g></mask><linearGradient x1="0" x2="1" y1="0.5" y2="0.5" id="dd27d111-8c80-4ff4-b3a7-20498bf1122e"><stop stop-color="#f00b51" offset="0"></stop><stop stop-color="#730062" offset="1"></stop></linearGradient><rect width="395.52" height="114.3206640223093" fill="url(#dd27d111-8c80-4ff4-b3a7-20498bf1122e)" mask="url(#3c6c5563-4c58-4930-bd93-05b9d9e0d16b)" data-fill-palette-color="accent"></rect></svg><rect width="395.52" height="114.3206640223093" fill="none" stroke="none" visibility="hidden"></rect></g></svg></g></svg>